<?xml version="1.0" encoding="UTF-8"?>
<mxfile host="app.diagrams.net" modified="2024-01-01T00:00:00.000Z" agent="draw.io" etag="xxx" version="22.1.11" type="device">
  <diagram name="企业级业务系统全链路监控" id="enterprise-full-chain-monitoring">
    <mxGraphModel dx="1600" dy="900" grid="1" gridSize="10" guides="1" tooltips="1" connect="1" arrows="1" fold="1" page="1" pageScale="1" pageWidth="1169" pageHeight="827" math="0" shadow="0">
      <root>
        <mxCell id="0" />
        <mxCell id="1" parent="0" />
        
        <!-- 标题 -->
        <mxCell id="title" value="数据中心业务系统全链路监控架构" style="text;html=1;strokeColor=none;fillColor=none;align=center;verticalAlign=middle;whiteSpace=wrap;rounded=0;fontSize=18;fontStyle=1;" parent="1" vertex="1">
          <mxGeometry x="400" y="20" width="320" height="30" as="geometry" />
        </mxCell>
        
        <!-- 核心业务系统层 -->
        <mxCell id="core-systems-layer" value="核心业务系统层 (Tier-1)" style="rounded=1;whiteSpace=wrap;html=1;fillColor=#e1f5fe;strokeColor=#01579b;fontSize=14;fontStyle=1;verticalAlign=top;spacingTop=10;" parent="1" vertex="1">
          <mxGeometry x="40" y="70" width="1080" height="120" as="geometry" />
        </mxCell>
        
        <mxCell id="cbs-system" value="核心银行系统&#xa;(CBS)&#xa;·账户管理&#xa;·交易处理&#xa;TPS: 10K+/秒" style="rounded=1;whiteSpace=wrap;html=1;fillColor=#bbdefb;strokeColor=#1976d2;fontSize=11;verticalAlign=top;spacingTop=5;" parent="1" vertex="1">
          <mxGeometry x="80" y="100" width="140" height="80" as="geometry" />
        </mxCell>
        
        <mxCell id="crm-system" value="客户关系管理&#xa;(CRM)&#xa;·客户信息管理&#xa;·营销活动管理&#xa;响应时间: &lt;200ms" style="rounded=1;whiteSpace=wrap;html=1;fillColor=#bbdefb;strokeColor=#1976d2;fontSize=11;verticalAlign=top;spacingTop=5;" parent="1" vertex="1">
          <mxGeometry x="280" y="100" width="140" height="80" as="geometry" />
        </mxCell>
        
        <mxCell id="rms-system" value="风险控制系统&#xa;(RMS)&#xa;·实时风险评估&#xa;·反洗钱监控&#xa;准确率: 99.99%" style="rounded=1;whiteSpace=wrap;html=1;fillColor=#bbdefb;strokeColor=#1976d2;fontSize=11;verticalAlign=top;spacingTop=5;" parent="1" vertex="1">
          <mxGeometry x="480" y="100" width="140" height="80" as="geometry" />
        </mxCell>
        
        <mxCell id="fms-system" value="财务管理系统&#xa;(FMS)&#xa;·会计核算&#xa;·财务报表&#xa;准确性: 99.9%" style="rounded=1;whiteSpace=wrap;html=1;fillColor=#bbdefb;strokeColor=#1976d2;fontSize=11;verticalAlign=top;spacingTop=5;" parent="1" vertex="1">
          <mxGeometry x="680" y="100" width="140" height="80" as="geometry" />
        </mxCell>
        
        <!-- ESB中间件层 -->
        <mxCell id="esb-layer" value="企业服务总线 (ESB)" style="rounded=1;whiteSpace=wrap;html=1;fillColor=#fff3e0;strokeColor=#e65100;fontSize=16;fontStyle=1;verticalAlign=top;spacingTop=10;" parent="1" vertex="1">
          <mxGeometry x="40" y="230" width="1080" height="100" as="geometry" />
        </mxCell>
        
        <mxCell id="message-routing" value="消息路由&#xa;·路由规则&#xa;·负载均衡" style="rounded=1;whiteSpace=wrap;html=1;fillColor=#ffe0b2;strokeColor=#f57c00;fontSize=10;verticalAlign=top;spacingTop=5;" parent="1" vertex="1">
          <mxGeometry x="80" y="260" width="100" height="60" as="geometry" />
        </mxCell>
        
        <mxCell id="service-orchestration" value="服务编排&#xa;·编排流程&#xa;·异常处理" style="rounded=1;whiteSpace=wrap;html=1;fillColor=#ffe0b2;strokeColor=#f57c00;fontSize=10;verticalAlign=top;spacingTop=5;" parent="1" vertex="1">
          <mxGeometry x="220" y="260" width="100" height="60" as="geometry" />
        </mxCell>
        
        <mxCell id="protocol-adaptation" value="协议转换&#xa;·协议适配&#xa;·数据转换" style="rounded=1;whiteSpace=wrap;html=1;fillColor=#ffe0b2;strokeColor=#f57c00;fontSize=10;verticalAlign=top;spacingTop=5;" parent="1" vertex="1">
          <mxGeometry x="360" y="260" width="100" height="60" as="geometry" />
        </mxCell>
        
        <mxCell id="transaction-management" value="事务管理&#xa;·分布式事务&#xa;·一致性保证" style="rounded=1;whiteSpace=wrap;html=1;fillColor=#ffe0b2;strokeColor=#f57c00;fontSize=10;verticalAlign=top;spacingTop=5;" parent="1" vertex="1">
          <mxGeometry x="500" y="260" width="100" height="60" as="geometry" />
        </mxCell>
        
        <mxCell id="esb-monitoring" value="ESB监控中心&#xa;·性能监控&#xa;·告警管理" style="rounded=1;whiteSpace=wrap;html=1;fillColor=#ffe0b2;strokeColor=#f57c00;fontSize=10;verticalAlign=top;spacingTop=5;" parent="1" vertex="1">
          <mxGeometry x="640" y="260" width="100" height="60" as="geometry" />
        </mxCell>
        
        <!-- 支撑系统层 -->
        <mxCell id="support-systems-layer" value="支撑业务系统层 (Tier-2)" style="rounded=1;whiteSpace=wrap;html=1;fillColor=#f3e5f5;strokeColor=#4a148c;fontSize=14;fontStyle=1;verticalAlign=top;spacingTop=10;" parent="1" vertex="1">
          <mxGeometry x="40" y="370" width="1080" height="120" as="geometry" />
        </mxCell>
        
        <mxCell id="dwh-system" value="数据仓库系统&#xa;(DWH)&#xa;·数据ETL处理&#xa;·历史数据存储&#xa;数据量: TB级/日" style="rounded=1;whiteSpace=wrap;html=1;fillColor=#e1bee7;strokeColor=#7b1fa2;fontSize=11;verticalAlign=top;spacingTop=5;" parent="1" vertex="1">
          <mxGeometry x="80" y="400" width="140" height="80" as="geometry" />
        </mxCell>
        
        <mxCell id="bi-system" value="报表分析系统&#xa;(BI)&#xa;·业务报表生成&#xa;·数据可视化&#xa;生成时效: &lt;30分钟" style="rounded=1;whiteSpace=wrap;html=1;fillColor=#e1bee7;strokeColor=#7b1fa2;fontSize=11;verticalAlign=top;spacingTop=5;" parent="1" vertex="1">
          <mxGeometry x="280" y="400" width="140" height="80" as="geometry" />
        </mxCell>
        
        <mxCell id="rrs-system" value="监管报送系统&#xa;(RRS)&#xa;·合规报告&#xa;·监管接口&#xa;及时性: T+1" style="rounded=1;whiteSpace=wrap;html=1;fillColor=#e1bee7;strokeColor=#7b1fa2;fontSize=11;verticalAlign=top;spacingTop=5;" parent="1" vertex="1">
          <mxGeometry x="480" y="400" width="140" height="80" as="geometry" />
        </mxCell>
        
        <mxCell id="api-gateway" value="外部接口系统&#xa;(API Gateway)&#xa;·外部接口管理&#xa;·安全认证&#xa;并发: 10,000+" style="rounded=1;whiteSpace=wrap;html=1;fillColor=#e1bee7;strokeColor=#7b1fa2;fontSize=11;verticalAlign=top;spacingTop=5;" parent="1" vertex="1">
          <mxGeometry x="680" y="400" width="140" height="80" as="geometry" />
        </mxCell>
        
        <!-- 监控分析层 -->
        <mxCell id="monitoring-layer" value="智能监控分析层" style="rounded=1;whiteSpace=wrap;html=1;fillColor=#e8f5e8;strokeColor=#2e7d32;fontSize=16;fontStyle=1;verticalAlign=top;spacingTop=10;" parent="1" vertex="1">
          <mxGeometry x="40" y="530" width="1080" height="100" as="geometry" />
        </mxCell>
        
        <mxCell id="performance-monitoring" value="性能监控&#xa;·吞吐量&#xa;·响应时间&#xa;·并发连接数" style="rounded=1;whiteSpace=wrap;html=1;fillColor=#c8e6c9;strokeColor=#388e3c;fontSize=10;verticalAlign=top;spacingTop=5;" parent="1" vertex="1">
          <mxGeometry x="80" y="560" width="120" height="60" as="geometry" />
        </mxCell>
        
        <mxCell id="quality-monitoring" value="质量监控&#xa;·成功率&#xa;·错误率&#xa;·数据完整性" style="rounded=1;whiteSpace=wrap;html=1;fillColor=#c8e6c9;strokeColor=#388e3c;fontSize=10;verticalAlign=top;spacingTop=5;" parent="1" vertex="1">
          <mxGeometry x="240" y="560" width="120" height="60" as="geometry" />
        </mxCell>
        
        <mxCell id="reliability-monitoring" value="可靠性监控&#xa;·可用性&#xa;·故障恢复&#xa;·容错能力" style="rounded=1;whiteSpace=wrap;html=1;fillColor=#c8e6c9;strokeColor=#388e3c;fontSize=10;verticalAlign=top;spacingTop=5;" parent="1" vertex="1">
          <mxGeometry x="400" y="560" width="120" height="60" as="geometry" />
        </mxCell>
        
        <mxCell id="business-monitoring" value="业务监控&#xa;·交易量&#xa;·业务完整性&#xa;·SLA达成率" style="rounded=1;whiteSpace=wrap;html=1;fillColor=#c8e6c9;strokeColor=#388e3c;fontSize=10;verticalAlign=top;spacingTop=5;" parent="1" vertex="1">
          <mxGeometry x="560" y="560" width="120" height="60" as="geometry" />
        </mxCell>
        
        <mxCell id="ai-analysis" value="AI智能分析&#xa;·异常模式识别&#xa;·根因分析&#xa;·预测告警" style="rounded=1;whiteSpace=wrap;html=1;fillColor=#c8e6c9;strokeColor=#388e3c;fontSize=10;verticalAlign=top;spacingTop=5;" parent="1" vertex="1">
          <mxGeometry x="720" y="560" width="120" height="60" as="geometry" />
        </mxCell>
        
        <!-- 全链路数据流 -->
        <mxCell id="data-flow-1" value="" style="edgeStyle=orthogonalEdgeStyle;rounded=0;orthogonalLoop=1;jettySize=auto;html=1;strokeWidth=2;fillColor=#1976d2;strokeColor=#1976d2;" parent="1" source="cbs-system" target="message-routing" edge="1">
          <mxGeometry relative="1" as="geometry" />
        </mxCell>
        
        <mxCell id="data-flow-2" value="" style="edgeStyle=orthogonalEdgeStyle;rounded=0;orthogonalLoop=1;jettySize=auto;html=1;strokeWidth=2;fillColor=#1976d2;strokeColor=#1976d2;" parent="1" source="crm-system" target="service-orchestration" edge="1">
          <mxGeometry relative="1" as="geometry" />
        </mxCell>
        
        <mxCell id="data-flow-3" value="" style="edgeStyle=orthogonalEdgeStyle;rounded=0;orthogonalLoop=1;jettySize=auto;html=1;strokeWidth=2;fillColor=#1976d2;strokeColor=#1976d2;" parent="1" source="rms-system" target="protocol-adaptation" edge="1">
          <mxGeometry relative="1" as="geometry" />
        </mxCell>
        
        <mxCell id="data-flow-4" value="" style="edgeStyle=orthogonalEdgeStyle;rounded=0;orthogonalLoop=1;jettySize=auto;html=1;strokeWidth=2;fillColor=#1976d2;strokeColor=#1976d2;" parent="1" source="fms-system" target="transaction-management" edge="1">
          <mxGeometry relative="1" as="geometry" />
        </mxCell>
        
        <mxCell id="esb-to-support-1" value="" style="edgeStyle=orthogonalEdgeStyle;rounded=0;orthogonalLoop=1;jettySize=auto;html=1;strokeWidth=2;fillColor=#f57c00;strokeColor=#f57c00;" parent="1" source="message-routing" target="dwh-system" edge="1">
          <mxGeometry relative="1" as="geometry" />
        </mxCell>
        
        <mxCell id="esb-to-support-2" value="" style="edgeStyle=orthogonalEdgeStyle;rounded=0;orthogonalLoop=1;jettySize=auto;html=1;strokeWidth=2;fillColor=#f57c00;strokeColor=#f57c00;" parent="1" source="service-orchestration" target="bi-system" edge="1">
          <mxGeometry relative="1" as="geometry" />
        </mxCell>
        
        <mxCell id="esb-to-support-3" value="" style="edgeStyle=orthogonalEdgeStyle;rounded=0;orthogonalLoop=1;jettySize=auto;html=1;strokeWidth=2;fillColor=#f57c00;strokeColor=#f57c00;" parent="1" source="protocol-adaptation" target="rrs-system" edge="1">
          <mxGeometry relative="1" as="geometry" />
        </mxCell>
        
        <mxCell id="esb-to-support-4" value="" style="edgeStyle=orthogonalEdgeStyle;rounded=0;orthogonalLoop=1;jettySize=auto;html=1;strokeWidth=2;fillColor=#f57c00;strokeColor=#f57c00;" parent="1" source="transaction-management" target="api-gateway" edge="1">
          <mxGeometry relative="1" as="geometry" />
        </mxCell>
        
        <!-- 监控连接线 -->
        <mxCell id="monitor-flow-1" value="" style="edgeStyle=orthogonalEdgeStyle;rounded=0;orthogonalLoop=1;jettySize=auto;html=1;strokeWidth=1;fillColor=#388e3c;strokeColor=#388e3c;dashed=1;" parent="1" source="core-systems-layer" target="performance-monitoring" edge="1">
          <mxGeometry relative="1" as="geometry" />
        </mxCell>
        
        <mxCell id="monitor-flow-2" value="" style="edgeStyle=orthogonalEdgeStyle;rounded=0;orthogonalLoop=1;jettySize=auto;html=1;strokeWidth=1;fillColor=#388e3c;strokeColor=#388e3c;dashed=1;" parent="1" source="esb-layer" target="quality-monitoring" edge="1">
          <mxGeometry relative="1" as="geometry" />
        </mxCell>
        
        <mxCell id="monitor-flow-3" value="" style="edgeStyle=orthogonalEdgeStyle;rounded=0;orthogonalLoop=1;jettySize=auto;html=1;strokeWidth=1;fillColor=#388e3c;strokeColor=#388e3c;dashed=1;" parent="1" source="support-systems-layer" target="reliability-monitoring" edge="1">
          <mxGeometry relative="1" as="geometry" />
        </mxCell>
        
        <!-- 业务交易流程示例 -->
        <mxCell id="transaction-example" value="客户开户业务全链路示例" style="rounded=1;whiteSpace=wrap;html=1;fillColor=#fff9c4;strokeColor=#f9a825;fontSize=14;fontStyle=1;" parent="1" vertex="1">
          <mxGeometry x="880" y="100" width="220" height="30" as="geometry" />
        </mxCell>
        
        <mxCell id="step1" value="①身份验证" style="rounded=1;whiteSpace=wrap;html=1;fillColor=#fff176;strokeColor=#f57f17;fontSize=10;" parent="1" vertex="1">
          <mxGeometry x="880" y="140" width="80" height="30" as="geometry" />
        </mxCell>
        
        <mxCell id="step2" value="②ESB路由" style="rounded=1;whiteSpace=wrap;html=1;fillColor=#fff176;strokeColor=#f57f17;fontSize=10;" parent="1" vertex="1">
          <mxGeometry x="880" y="280" width="80" height="30" as="geometry" />
        </mxCell>
        
        <mxCell id="step3" value="③数据持久" style="rounded=1;whiteSpace=wrap;html=1;fillColor=#fff176;strokeColor=#f57f17;fontSize=10;" parent="1" vertex="1">
          <mxGeometry x="880" y="420" width="80" height="30" as="geometry" />
        </mxCell>
        
        <mxCell id="step4" value="④监控分析" style="rounded=1;whiteSpace=wrap;html=1;fillColor=#fff176;strokeColor=#f57f17;fontSize=10;" parent="1" vertex="1">
          <mxGeometry x="880" y="580" width="80" height="30" as="geometry" />
        </mxCell>
        
        <!-- 交易流程箭头 -->
        <mxCell id="transaction-flow-1" value="" style="edgeStyle=orthogonalEdgeStyle;rounded=0;orthogonalLoop=1;jettySize=auto;html=1;strokeWidth=3;fillColor=#f57f17;strokeColor=#f57f17;" parent="1" source="step1" target="step2" edge="1">
          <mxGeometry relative="1" as="geometry" />
        </mxCell>
        
        <mxCell id="transaction-flow-2" value="" style="edgeStyle=orthogonalEdgeStyle;rounded=0;orthogonalLoop=1;jettySize=auto;html=1;strokeWidth=3;fillColor=#f57f17;strokeColor=#f57f17;" parent="1" source="step2" target="step3" edge="1">
          <mxGeometry relative="1" as="geometry" />
        </mxCell>
        
        <mxCell id="transaction-flow-3" value="" style="edgeStyle=orthogonalEdgeStyle;rounded=0;orthogonalLoop=1;jettySize=auto;html=1;strokeWidth=3;fillColor=#f57f17;strokeColor=#f57f17;" parent="1" source="step3" target="step4" edge="1">
          <mxGeometry relative="1" as="geometry" />
        </mxCell>
        
        <!-- 关联分析示例 -->
        <mxCell id="correlation-analysis" value="跨系统关联分析" style="rounded=1;whiteSpace=wrap;html=1;fillColor=#ffebee;strokeColor=#c62828;fontSize=12;fontStyle=1;" parent="1" vertex="1">
          <mxGeometry x="920" y="680" width="180" height="30" as="geometry" />
        </mxCell>
        
        <mxCell id="correlation-detail" value="CBS异常 ← ESB堆积 ← DB连接池满&#xa;CRM响应慢 ← 缓存失效 ← 磁盘I/O高&#xa;AI自动关联分析，5秒内定位根因" style="rounded=1;whiteSpace=wrap;html=1;fillColor=#ffcdd2;strokeColor=#d32f2f;fontSize=9;verticalAlign=top;spacingTop=5;" parent="1" vertex="1">
          <mxGeometry x="870" y="720" width="280" height="60" as="geometry" />
        </mxCell>
        
      </root>
    </mxGraphModel>
  </diagram>
</mxfile>
